<svg width="64" height="64" version="1.1" viewBox="0 0 64 64" xmlns="http://www.w3.org/2000/svg">
 <path d="m27.429-6.0736e-8 -2.5803 10.321a22.857 22.857 0 0 0-3.1518 1.2768l-9.0894-5.4555-6.4644 6.4644 5.4642 9.1159a22.857 22.857 0 0 0-1.3035 3.1339l-10.304 2.5714v9.1428l10.321 2.5803a22.857 22.857 0 0 0 1.2768 3.1429l-5.4555 9.098 6.4644 6.4644 9.1159-5.4642a22.857 22.857 0 0 0 3.1339 1.3035l2.5714 10.304h9.1428l2.5803-10.321a22.857 22.857 0 0 0 3.1429-1.2768l9.098 5.4555 6.4644-6.4644-5.4642-9.1159a22.857 22.857 0 0 0 1.3035-3.1339l10.304-2.5714v-9.1428l-10.321-2.5803a22.857 22.857 0 0 0-1.2768-3.1429l5.4555-9.098-6.4644-6.4644-9.1159 5.4642a22.857 22.857 0 0 0-3.1339-1.3035l-2.5714-10.304h-9.1428zm4.5714 22.857a9.1428 9.1428 0 0 1 9.1428 9.1428 9.1428 9.1428 0 0 1-9.1428 9.1428 9.1428 9.1428 0 0 1-9.1428-9.1428 9.1428 9.1428 0 0 1 9.1428-9.1428z" fill="#fff"/>
</svg>
